<svg xmlns="http://www.w3.org/2000/svg" xmlns:xlink="http://www.w3.org/1999/xlink" viewBox="2nn 120 547.62 794.33"><defs><style>.cls-1{fill:none;}.cls-2{clip-path:url(#clip-path);}.cls-3{opacity:0.26;}.cls-4{fill:#eda300;}.cls-5{opacity:0.18;}.cls-6{fill:#fff;}.cls-7{opacity:0.3;}.cls-8{clip-path:url(#clip-path-2);}.cls-9{clip-path:url(#clip-path-3);}.cls-10{opacity:0.2;}.cls-11{clip-path:url(#clip-path-4);}.cls-12{opacity:0.1;}.cls-13{clip-path:url(#clip-path-5);}.cls-14{opacity:0.05;}.cls-15{clip-path:url(#clip-path-6);}.cls-16{opacity:0.03;}.cls-17{clip-path:url(#clip-path-7);}.cls-18{opacity:0.01;}.cls-19{clip-path:url(#clip-path-9);}.cls-20{opacity:0.19;}.cls-21{clip-path:url(#clip-path-11);}.cls-22{clip-path:url(#clip-path-12);}.cls-23{clip-path:url(#clip-path-13);}.cls-24{clip-path:url(#clip-path-14);}.cls-25{clip-path:url(#clip-path-15);}.cls-26{clip-path:url(#clip-path-16);}.cls-27{clip-path:url(#clip-path-17);}.cls-28{clip-path:url(#clip-path-18);}.cls-29{clip-path:url(#clip-path-19);}.cls-30{clip-path:url(#clip-path-20);}.cls-31{clip-path:url(#clip-path-21);}.cls-32{clip-path:url(#clip-path-22);}.cls-33{clip-path:url(#clip-path-23);}.cls-34{clip-path:url(#clip-path-24);}.cls-35{clip-path:url(#clip-path-25);}.cls-36{clip-path:url(#clip-path-26);}.cls-37{clip-path:url(#clip-path-27);}</style><clipPath id="clip-path"><rect class="cls-1" x="207.93" y="125.18" width="233.72" height="479.28"/></clipPath><clipPath id="clip-path-2"><rect class="cls-1" x="80.11" y="80.11" width="374.86" height="374.86"/></clipPath><clipPath id="clip-path-3"><rect class="cls-1" x="85.11" y="85.11" width="374.87" height="374.86"/></clipPath><clipPath id="clip-path-4"><rect class="cls-1" x="90.12" y="90.12" width="374.86" height="374.86"/></clipPath><clipPath id="clip-path-5"><rect class="cls-1" x="95.13" y="95.13" width="374.86" height="374.86"/></clipPath><clipPath id="clip-path-6"><rect class="cls-1" x="100.13" y="100.13" width="374.87" height="374.86"/></clipPath><clipPath id="clip-path-7"><rect class="cls-1" x="105.14" y="105.14" width="374.86" height="374.86"/></clipPath><clipPath id="clip-path-9"><rect class="cls-1" x="110.15" y="110.15" width="374.86" height="374.86"/></clipPath><clipPath id="clip-path-11"><rect class="cls-1" x="95.12" y="341.31" width="452.5" height="453.02"/></clipPath><clipPath id="clip-path-12"><rect class="cls-1" x="131.94" y="378.65" width="325.01" height="325.02"/></clipPath><clipPath id="clip-path-13"><rect class="cls-1" x="204.47" y="451.18" width="331.06" height="331.06"/></clipPath><clipPath id="clip-path-14"><rect class="cls-1" x="95.12" y="341.31" width="362.1" height="362.1"/></clipPath><clipPath id="clip-path-15"><rect class="cls-1" x="125.99" y="372.18" width="318.97" height="318.97"/></clipPath><clipPath id="clip-path-16"><rect class="cls-1" x="119.95" y="366.14" width="318.97" height="318.97"/></clipPath><clipPath id="clip-path-17"><rect class="cls-1" x="113.9" y="360.09" width="318.97" height="318.97"/></clipPath><clipPath id="clip-path-18"><rect class="cls-1" x="107.84" y="354.02" width="318.98" height="318.97"/></clipPath><clipPath id="clip-path-19"><rect class="cls-1" x="101.16" y="347.35" width="318.97" height="318.97"/></clipPath><clipPath id="clip-path-20"><rect class="cls-1" x="95.12" y="341.31" width="318.97" height="318.97"/></clipPath><clipPath id="clip-path-21"><rect class="cls-1" x="90.98" y="285.03" width="388.58" height="388.58"/></clipPath><clipPath id="clip-path-22"><rect class="cls-1" x="128.47" y="322.52" width="336.21" height="336.21"/></clipPath><clipPath id="clip-path-23"><rect class="cls-1" x="121.13" y="315.18" width="336.22" height="336.21"/></clipPath><clipPath id="clip-path-24"><rect class="cls-1" x="113.8" y="307.84" width="336.22" height="336.21"/></clipPath><clipPath id="clip-path-25"><rect class="cls-1" x="106.43" y="300.47" width="336.21" height="336.21"/></clipPath><clipPath id="clip-path-26"><rect class="cls-1" x="98.32" y="292.37" width="336.21" height="336.21"/></clipPath><clipPath id="clip-path-27"><rect class="cls-1" x="90.98" y="285.03" width="336.22" height="336.21"/></clipPath></defs><title>Asset 9</title><g id="Layer_2" data-name="Layer 2"><g id="Layer_1-2" data-name="Layer 1"><g class="cls-2"><g class="cls-3"><rect class="cls-4" x="-75.87" y="185.66" width="526.6" height="3.54" transform="translate(-77.64 187.43) rotate(-45)"/></g><g class="cls-5"><rect class="cls-6" x="-60.85" y="200.68" width="526.6" height="3.54" transform="translate(-83.86 202.45) rotate(-45)"/><rect class="cls-6" x="-55.84" y="205.69" width="526.6" height="3.54" transform="translate(-85.93 207.46) rotate(-45)"/><rect class="cls-6" x="-70.63" y="190.89" width="526.6" height="3.54" transform="translate(-79.8 192.66) rotate(-45)"/><rect class="cls-6" x="-65.63" y="195.9" width="526.6" height="3.54" transform="translate(-81.88 197.67) rotate(-45)"/><rect class="cls-6" x="-50.83" y="210.7" width="526.6" height="3.54" transform="translate(-88.01 212.47) rotate(-45)"/><rect class="cls-6" x="-45.83" y="215.7" width="526.6" height="3.54" transform="translate(-90.08 217.47) rotate(-45)"/><rect class="cls-6" x="-40.82" y="220.71" width="526.6" height="3.54" transform="translate(-92.15 222.48) rotate(-45)"/><rect class="cls-6" x="-35.81" y="225.72" width="526.6" height="3.54" transform="translate(-94.23 227.49) rotate(-45)"/><rect class="cls-6" x="-30.81" y="230.72" width="526.6" height="3.54" transform="translate(-96.3 232.49) rotate(-45)"/><rect class="cls-6" x="-25.8" y="235.73" width="526.6" height="3.54" transform="translate(-98.38 237.5) rotate(-45)"/><rect class="cls-6" x="-20.79" y="240.74" width="526.6" height="3.54" transform="translate(-100.45 242.51) rotate(-45)"/><rect class="cls-6" x="-15.79" y="245.74" width="526.6" height="3.54" transform="translate(-102.52 247.52) rotate(-45)"/><rect class="cls-6" x="-10.78" y="250.75" width="526.6" height="3.54" transform="translate(-104.6 252.52) rotate(-45)"/><rect class="cls-6" x="-5.77" y="255.76" width="526.6" height="3.54" transform="translate(-106.67 257.53) rotate(-45)"/><rect class="cls-6" x="-0.77" y="260.76" width="526.6" height="3.54" transform="translate(-108.74 262.53) rotate(-45)"/></g><g class="cls-7"><g class="cls-8"><rect class="cls-6" x="4.24" y="265.77" width="526.6" height="3.54" transform="translate(-110.82 267.53) rotate(-45)"/></g></g><g class="cls-7"><g class="cls-9"><rect class="cls-6" x="9.25" y="270.78" width="526.6" height="3.54" transform="translate(-112.89 272.55) rotate(-45)"/></g></g><g class="cls-10"><g class="cls-11"><rect class="cls-6" x="14.25" y="275.78" width="526.6" height="3.54" transform="translate(-114.97 277.55) rotate(-45)"/></g></g><g class="cls-12"><g class="cls-13"><rect class="cls-6" x="19.26" y="280.79" width="526.6" height="3.54" transform="translate(-117.04 282.56) rotate(-45)"/></g></g><g class="cls-14"><g class="cls-15"><rect class="cls-6" x="24.27" y="285.8" width="526.6" height="3.54" transform="translate(-119.11 287.57) rotate(-45)"/></g></g><g class="cls-16"><g class="cls-17"><g class="cls-7"><g class="cls-17"><rect class="cls-6" x="29.27" y="290.8" width="526.6" height="3.54" transform="translate(-121.19 292.56) rotate(-45)"/></g></g></g></g><g class="cls-18"><g class="cls-19"><g class="cls-7"><g class="cls-19"><rect class="cls-6" x="34.28" y="295.81" width="526.6" height="3.54" transform="translate(-123.26 297.58) rotate(-45)"/></g></g></g></g><g class="cls-20"><g class="cls-21"><g class="cls-7"><g class="cls-22"><rect class="cls-6" x="68.01" y="536" width="446.82" height="4.27" transform="translate(-295.17 363.69) rotate(-45)"/><rect class="cls-6" x="74.06" y="542.05" width="446.82" height="4.27" transform="translate(-297.67 369.73) rotate(-45)"/></g></g><rect class="cls-6" x="80.1" y="548.09" width="446.82" height="4.27" transform="translate(-300.17 375.77) rotate(-45)"/><rect class="cls-6" x="86.15" y="554.13" width="446.82" height="4.27" transform="translate(-302.68 381.82) rotate(-45)"/><rect class="cls-6" x="92.19" y="560.18" width="446.82" height="4.27" transform="translate(-305.18 387.86) rotate(-45)"/><rect class="cls-6" x="98.24" y="566.22" width="446.82" height="4.27" transform="translate(-307.68 393.91) rotate(-45)"/><rect class="cls-6" x="104.28" y="572.27" width="446.82" height="4.27" transform="translate(-310.19 399.95) rotate(-45)"/><rect class="cls-4" x="122.41" y="590.4" width="446.82" height="4.27" transform="translate(-317.7 418.08) rotate(-45)"/><rect class="cls-4" x="128.46" y="596.44" width="446.82" height="4.27" transform="translate(-320.2 424.13) rotate(-45)"/><rect class="cls-4" x="134.5" y="602.49" width="446.82" height="4.27" transform="translate(-322.7 430.17) rotate(-45)"/><g class="cls-7"><g class="cls-23"><rect class="cls-6" x="140.54" y="608.53" width="446.82" height="4.27" transform="translate(-325.21 436.22) rotate(-45)"/><rect class="cls-6" x="146.59" y="614.58" width="446.82" height="4.27" transform="translate(-327.71 442.26) rotate(-45)"/><rect class="cls-6" x="152.63" y="620.62" width="446.82" height="4.27" transform="translate(-330.21 448.3) rotate(-45)"/></g></g><rect class="cls-6" x="164.72" y="632.71" width="446.82" height="4.27" transform="translate(-335.22 460.39) rotate(-45)"/><rect class="cls-6" x="158.68" y="626.66" width="446.82" height="4.27" transform="translate(-332.72 454.35) rotate(-45)"/><g class="cls-7"><g class="cls-24"><rect class="cls-6" x="68.28" y="535.74" width="446.82" height="4.27" transform="translate(-294.9 363.79) rotate(-45)"/><g class="cls-10"><g class="cls-25"><rect class="cls-6" x="62.07" y="529.53" width="446.82" height="4.27" transform="translate(-292.33 357.58) rotate(-45)"/></g></g><g class="cls-12"><g class="cls-26"><rect class="cls-6" x="56.02" y="523.49" width="446.82" height="4.27" transform="translate(-289.83 351.54) rotate(-45)"/></g></g><g class="cls-14"><g class="cls-27"><rect class="cls-6" x="49.98" y="517.44" width="446.82" height="4.27" transform="translate(-287.32 345.5) rotate(-45)"/></g></g><g class="cls-16"><g class="cls-28"><rect class="cls-6" x="43.91" y="511.37" width="446.82" height="4.27" transform="translate(-284.81 339.43) rotate(-45)"/></g></g><g class="cls-16"><g class="cls-29"><rect class="cls-6" x="37.24" y="504.7" width="446.82" height="4.27" transform="translate(-282.05 332.76) rotate(-45)"/></g></g><g class="cls-18"><g class="cls-30"><rect class="cls-6" x="31.19" y="498.66" width="446.82" height="4.27" transform="translate(-279.54 326.71) rotate(-45)"/></g></g><rect class="cls-6" x="74.32" y="541.78" width="446.82" height="4.27" transform="translate(-297.41 369.84) rotate(-45)"/></g></g></g></g><g class="cls-7"><g class="cls-31"><rect class="cls-6" x="68.98" y="495.57" width="470.29" height="5.19" transform="translate(-263.18 360.95) rotate(-45)"/><g class="cls-10"><g class="cls-32"><rect class="cls-6" x="61.44" y="488.03" width="470.29" height="5.19" transform="translate(-260.06 353.41) rotate(-45)"/></g></g><g class="cls-12"><g class="cls-33"><rect class="cls-6" x="54.1" y="480.69" width="470.29" height="5.19" transform="translate(-257.02 346.07) rotate(-45)"/></g></g><g class="cls-14"><g class="cls-34"><rect class="cls-6" x="46.76" y="473.35" width="470.29" height="5.19" transform="translate(-253.98 338.74) rotate(-45)"/></g></g><g class="cls-16"><g class="cls-35"><rect class="cls-6" x="39.39" y="465.98" width="470.29" height="5.19" transform="translate(-250.92 331.37) rotate(-45)"/></g></g><g class="cls-16"><g class="cls-36"><rect class="cls-6" x="31.29" y="457.88" width="470.29" height="5.19" transform="translate(-247.57 323.26) rotate(-45)"/></g></g><g class="cls-18"><g class="cls-37"><rect class="cls-6" x="23.95" y="450.54" width="470.29" height="5.19" transform="translate(-244.53 315.92) rotate(-45)"/></g></g><rect class="cls-6" x="76.32" y="502.91" width="470.29" height="5.19" transform="translate(-266.22 368.29) rotate(-45)"/></g></g></g></g></g></svg>