<svg xmlns="http://www.w3.org/2000/svg" viewBox="0 0 15.58 15.78"><defs><style>.cls-1{fill:#fff;}</style></defs><title>Asset 28</title><g id="Layer_2" data-name="Layer 2"><g id="Layer_1-2" data-name="Layer 1"><path class="cls-1" d="M14.59,12.21H6.31c-.1,0-1,0-1.34-.7S5.33,10,5.55,9.7h0L6,9.16,2.75,1.3.48,1.07A.54.54,0,0,1,.59,0L3.18.26a.54.54,0,0,1,.44.33L7.16,9.06a.52.52,0,0,1-.09.56l-.71.79a1.71,1.71,0,0,0-.41.65,1,1,0,0,0,.36.07h8.28a.54.54,0,0,1,.53.54.54.54,0,0,1-.53.54"/><path class="cls-1" d="M6.67,9.8a.53.53,0,0,1-.54-.48.54.54,0,0,1,.48-.59L13.9,8l.54-4.21L4,3.42a.54.54,0,0,1,0-1.07l11,.36a.58.58,0,0,1,.4.19.58.58,0,0,1,.12.42l-.67,5.22a.53.53,0,0,1-.48.46l-7.71.8h0"/><path class="cls-1" d="M13.44,15.78a1.62,1.62,0,1,1,1.61-1.61,1.62,1.62,0,0,1-1.61,1.61m0-2.15a.54.54,0,1,0,.54.54.54.54,0,0,0-.54-.54"/><path class="cls-1" d="M6.52,15.78a1.62,1.62,0,1,1,1.62-1.61,1.62,1.62,0,0,1-1.62,1.61m0-2.15a.54.54,0,1,0,.54.54.54.54,0,0,0-.54-.54"/></g></g></svg>