<svg xmlns="http://www.w3.org/2000/svg" viewBox="0 0 11.29 11.22"><defs><style>.cls-1{fill:#fff;}</style></defs><title>Asset 35</title><g id="Layer_2" data-name="Layer 2"><g id="Layer_1-2" data-name="Layer 1"><polygon class="cls-1" points="8.19 2.97 5.31 2.97 5.31 0.43 6.16 0.43 6.16 2.12 8.19 2.12 8.19 2.97"/><path class="cls-1" d="M7.46,11.22H1.16A1.15,1.15,0,0,1,0,10.07V1.16A1.16,1.16,0,0,1,1.16,0H5.73c.6,0,2.89,1.89,2.89,2.55V4.29H8.19a2.25,2.25,0,0,0,0,4.49h.43v1.29a1.15,1.15,0,0,1-1.16,1.15M5.69.84H1.16a.31.31,0,0,0-.31.31v8.91a.31.31,0,0,0,.31.31h6.3a.31.31,0,0,0,.31-.31V9.6a3.09,3.09,0,0,1,0-6.13V2.55A8.61,8.61,0,0,0,5.69.84"/><path class="cls-1" d="M8.19,9.63a3.1,3.1,0,1,1,3.1-3.09,3.1,3.1,0,0,1-3.1,3.09m0-5.34a2.25,2.25,0,1,0,2.25,2.25A2.24,2.24,0,0,0,8.19,4.29"/><polygon class="cls-1" points="7.69 7.99 6.53 6.84 7.13 6.24 7.69 6.79 9.18 5.29 9.78 5.89 7.69 7.99"/><rect class="cls-1" x="1.8" y="3.25" width="2.82" height="0.85"/><rect class="cls-1" x="1.8" y="5.65" width="2.82" height="0.85"/><rect class="cls-1" x="1.8" y="8.05" width="2.82" height="0.85"/></g></g></svg>