<svg xmlns="http://www.w3.org/2000/svg" viewBox="0 0 16.01 18.94"><defs><style>.cls-1{fill:#fff;}</style></defs><title>Asset 25</title><g id="Layer_2" data-name="Layer 2"><g id="Layer_1-2" data-name="Layer 1"><path class="cls-1" d="M6.57,14.92a1.06,1.06,0,0,1-.74-.3L4.65,13.46l.24-.5a.5.5,0,0,0-.67-.66l-.5.25L2.54,11.4a1,1,0,0,1-.31-.75,1,1,0,0,1,.3-.75L8,4.35a1.06,1.06,0,0,1,1.5,0l1.2,1.18L10.33,6a.5.5,0,0,0,.7.67l.52-.34,1.2,1.18a1.09,1.09,0,0,1,.32.75,1.08,1.08,0,0,1-.31.75L7.33,14.6a1.09,1.09,0,0,1-.76.32m-.72-1.68.68.66,5.52-5.55V8.26l-.64-.62a1.49,1.49,0,0,1-2-2l-.64-.62L3.24,10.6l.69.74a1.49,1.49,0,0,1,1.92,1.9"/><path class="cls-1" d="M8.1,7l-.39.39.87.85L9,7.84ZM6.94,5.85l-.39.39.87.86.39-.4Z"/><path class="cls-1" d="M10.39,9.28,10,9.67l.87.85.39-.39ZM9.23,8.15l-.39.39.87.85L10.1,9Z"/><path class="cls-1" d="M1,9.47a7,7,0,0,1,6.68-7l-.85.85.72.73L9.63,2,7.58,0,6.86.73l.74.75a8,8,0,0,0-3.09,15.2l.31-1A7,7,0,0,1,1,9.47"/><path class="cls-1" d="M16,9.47a8,8,0,0,0-4.83-7.34l-.3,1A7,7,0,0,1,8.14,16.44L9,15.58l-.73-.72-2,2,2,2L9,18.22l-.74-.75a8,8,0,0,0,7.75-8"/></g></g></svg>