<svg xmlns="http://www.w3.org/2000/svg" viewBox="0 0 12.24 12.29"><defs><style>.cls-1{fill:#fff;}</style></defs><title>Asset 34</title><g id="Layer_2" data-name="Layer 2"><g id="Layer_1-2" data-name="Layer 1"><path class="cls-1" d="M4.9,12.29A1.16,1.16,0,0,1,4.07,12l-1.33-1.3L3,10.08a.56.56,0,0,0-.76-.74l-.56.28L.36,8.32A1.17,1.17,0,0,1,0,7.48a1.22,1.22,0,0,1,.34-.85L6.48.36a1.2,1.2,0,0,1,1.69,0L9.52,1.67l-.36.6A.55.55,0,0,0,9.24,3,.56.56,0,0,0,9.93,3l.59-.38L11.88,4a1.24,1.24,0,0,1,.36.85,1.2,1.2,0,0,1-.34.84L5.76,11.93a1.18,1.18,0,0,1-.86.36M4.1,10.4l.76.74,6.23-6.27V4.78l-.72-.7A1.69,1.69,0,0,1,8.1,1.85l-.72-.7L1.15,7.42l.78.83a1.69,1.69,0,0,1,1.76.38A1.71,1.71,0,0,1,4.1,10.4"/><path class="cls-1" d="M7.92,4.63l-.43.45,1,1,.43-.45ZM6.61,3.35l-.43.44,1,1,.43-.45Z"/><path class="cls-1" d="M6.63,3.34l-.44.44,1,1,.44-.44ZM5.32,2.06l-.44.44,1,1L6.3,3Z"/><path class="cls-1" d="M9.22,5.93l-.44.44,1,1,.44-.44ZM7.91,4.65l-.44.44,1,1,.44-.44Z"/></g></g></svg>