<svg xmlns="http://www.w3.org/2000/svg" viewBox="0 0 18.05 17.97"><defs><style>.cls-1{fill:#fff;}</style></defs><title>Asset 27</title><g id="Layer_2" data-name="Layer 2"><g id="Layer_1-2" data-name="Layer 1"><path class="cls-1" d="M.49,9.58a.47.47,0,0,1-.35-.14.49.49,0,0,1,0-.69L8.75.14a.49.49,0,0,1,.69,0l8.47,8.47a.49.49,0,0,1-.69.69L9.1,1.18.83,9.44a.45.45,0,0,1-.34.14"/><path class="cls-1" d="M15.58,18H10.84a.49.49,0,0,1-.49-.49V13.7H7.7v3.78a.49.49,0,0,1-.49.49H2.47A.49.49,0,0,1,2,17.48V9.29a.49.49,0,0,1,1,0V17H6.73V13.21a.49.49,0,0,1,.48-.49h3.63a.49.49,0,0,1,.49.49V17h3.76V9.29a.49.49,0,0,1,1,0v8.19a.49.49,0,0,1-.49.49"/></g></g></svg>