<svg xmlns="http://www.w3.org/2000/svg" viewBox="0 0 9.83 8.41"><defs><style>.cls-1{fill:#fff;}</style></defs><title>Asset 21</title><g id="Layer_2" data-name="Layer 2"><g id="Layer_1-2" data-name="Layer 1"><path class="cls-1" d="M.32,1.37H4.23a1,1,0,0,0,2,0H9.51a.32.32,0,1,0,0-.64H6.23a1,1,0,0,0-2,0H.32a.32.32,0,0,0,0,.64"/><path class="cls-1" d="M9.51,3.88h-6a1,1,0,0,0-2,0H.32A.32.32,0,0,0,0,4.2a.32.32,0,0,0,.32.32H1.49a1,1,0,0,0,2,0h6a.32.32,0,0,0,.32-.32.33.33,0,0,0-.32-.32"/><path class="cls-1" d="M9.51,7H7.29a1.06,1.06,0,0,0-2,0h-5A.32.32,0,0,0,0,7.36a.32.32,0,0,0,.32.32h5a1.06,1.06,0,0,0,2,0H9.51a.33.33,0,0,0,.32-.32A.32.32,0,0,0,9.51,7"/></g></g></svg>