<svg xmlns="http://www.w3.org/2000/svg" viewBox="0 0 30.03 30.03"><defs><style>.cls-1{fill:#fff;}</style></defs><title>Asset 14</title><g id="Layer_2" data-name="Layer 2"><g id="Layer_1-2" data-name="Layer 1"><path class="cls-1" d="M15,3.31a2.91,2.91,0,0,1,2.78,2h8.7a15,15,0,0,0-23,0h8.7a2.92,2.92,0,0,1,2.79-2"/><path class="cls-1" d="M18.7,24.69a2.93,2.93,0,0,1-5.58,0H3.53a15,15,0,0,0,23,0Z"/><path class="cls-1" d="M27.79,7.13h-10a2.93,2.93,0,0,1-5.57,0h-10a15,15,0,0,0,0,15.78H13.12a2.93,2.93,0,0,1,5.58,0h9.09a15,15,0,0,0,0-15.78m0,8.78H9.87a2.93,2.93,0,0,1-5.58,0H2.23a.89.89,0,1,1,0-1.78H4.29a2.93,2.93,0,0,1,5.58,0H27.81a.89.89,0,1,1,0,1.78"/></g></g></svg>