<svg xmlns="http://www.w3.org/2000/svg" viewBox="0 0 111.22 25"><defs><style>.cls-1{fill:#fff;}</style></defs><title>Asset 6</title><g id="Layer_2" data-name="Layer 2"><g id="Layer_1-2" data-name="Layer 1"><path class="cls-1" d="M0,.33A8.24,8.24,0,0,1,1.27.24,2.12,2.12,0,0,1,2.71.66a1.44,1.44,0,0,1,.45,1.08,1.49,1.49,0,0,1-.4,1.09A2.09,2.09,0,0,1,1.2,3.4a2.21,2.21,0,0,1-.54,0V5.41H0ZM.66,2.81a2.19,2.19,0,0,0,.55,0c.8,0,1.29-.39,1.29-1.09S2,.76,1.29.76A3,3,0,0,0,.66.81Z"/><path class="cls-1" d="M7.18,3.53a1.8,1.8,0,0,1-1.84,2,1.75,1.75,0,0,1-1.76-1.9A1.8,1.8,0,0,1,5.41,1.64,1.75,1.75,0,0,1,7.18,3.53Zm-2.92,0C4.26,4.38,4.72,5,5.38,5s1.11-.6,1.11-1.43c0-.63-.31-1.41-1.1-1.41S4.26,2.88,4.26,3.57Z"/><path class="cls-1" d="M8.24,1.72l.49,1.87c.1.41.2.8.27,1.18H9c.09-.38.21-.77.33-1.17L10,1.72h.56l.57,1.84a12.44,12.44,0,0,1,.33,1.21h0a10.75,10.75,0,0,1,.28-1.2l.52-1.85h.66L11.72,5.41h-.61l-.57-1.76c-.12-.41-.23-.78-.32-1.21h0a10.86,10.86,0,0,1-.33,1.22l-.6,1.75H8.66L7.55,1.72Z"/><path class="cls-1" d="M13.88,3.69A1.17,1.17,0,0,0,15.14,5a2.33,2.33,0,0,0,1-.19l.12.48a2.88,2.88,0,0,1-1.23.24,1.72,1.72,0,0,1-1.81-1.87,1.78,1.78,0,0,1,1.73-2,1.55,1.55,0,0,1,1.52,1.73,2.45,2.45,0,0,1,0,.32Zm2-.48a1,1,0,0,0-.93-1.09,1.1,1.1,0,0,0-1,1.09Z"/><path class="cls-1" d="M17.32,2.87c0-.43,0-.81,0-1.15h.59l0,.73h0a1.13,1.13,0,0,1,1-.81l.18,0v.63h-.23a.93.93,0,0,0-.9.85,2.85,2.85,0,0,0,0,.31v2h-.67Z"/><path class="cls-1" d="M20.11,3.69A1.17,1.17,0,0,0,21.37,5a2.33,2.33,0,0,0,1-.19l.12.48a2.92,2.92,0,0,1-1.23.24,1.71,1.71,0,0,1-1.81-1.87,1.78,1.78,0,0,1,1.72-2,1.56,1.56,0,0,1,1.53,1.73,1.33,1.33,0,0,1,0,.32Zm2-.48a1,1,0,0,0-.93-1.09,1.11,1.11,0,0,0-1,1.09Z"/><path class="cls-1" d="M26.72,0V4.45c0,.33,0,.71,0,1h-.59l0-.64h0a1.31,1.31,0,0,1-1.24.72,1.68,1.68,0,0,1-1.58-1.87,1.76,1.76,0,0,1,1.65-2A1.22,1.22,0,0,1,26,2.2h0V0Zm-.66,3.22a1.33,1.33,0,0,0,0-.28,1,1,0,0,0-1-.77c-.69,0-1.1.61-1.1,1.42S24.33,5,25.05,5a1,1,0,0,0,1-.8,1.29,1.29,0,0,0,0-.29Z"/><path class="cls-1" d="M29.45,0h.67V2.31h0a1.37,1.37,0,0,1,1.26-.67c.92,0,1.56.77,1.56,1.88a1.76,1.76,0,0,1-1.66,2,1.34,1.34,0,0,1-1.24-.69h0l0,.61h-.57c0-.25,0-.63,0-1Zm.67,3.93a.63.63,0,0,0,0,.24,1,1,0,0,0,1,.79c.71,0,1.12-.57,1.12-1.42s-.38-1.37-1.1-1.37a1.09,1.09,0,0,0-1,.82,1.27,1.27,0,0,0,0,.28Z"/><path class="cls-1" d="M34,1.72l.8,2.18a6.59,6.59,0,0,1,.25.75h0c.07-.22.15-.5.24-.77L36,1.72h.71l-1,2.63a5.73,5.73,0,0,1-1.26,2.31,1.94,1.94,0,0,1-.82.42l-.17-.55A1.74,1.74,0,0,0,34,6.2a2.13,2.13,0,0,0,.57-.75.47.47,0,0,0,0-.16.37.37,0,0,0,0-.17l-1.36-3.4Z"/><path class="cls-1" d="M34.51,22.26V12H39.3a3.2,3.2,0,0,1,3.44,3.3,3.21,3.21,0,0,1-3.44,3.29H36.69v3.65Zm6-6.94A1.38,1.38,0,0,0,39,13.94H36.69v2.75H39a1.38,1.38,0,0,0,1.51-1.37"/><path class="cls-1" d="M54.8,22.26l-2-3.64H51.2v3.64H49V12H53.8a3.2,3.2,0,0,1,3.46,3.3,3,3,0,0,1-2.26,3l2.32,3.9Zm.22-7a1.38,1.38,0,0,0-1.52-1.37H51.2V16.7h2.3A1.39,1.39,0,0,0,55,15.31"/><path class="cls-1" d="M70.87,22.26l-.65-1.74H65.83l-.64,1.74H62.72L66.66,12h2.73l4,10.24ZM68,14.2l-1.6,4.41h3.19Z"/><polygon class="cls-1" points="85.87 22.26 83.31 18.52 80.73 22.26 78.14 22.26 81.85 17.01 78.37 12.03 80.96 12.03 83.31 15.52 85.63 12.03 88.25 12.03 84.77 17 88.48 22.26 85.87 22.26"/><rect class="cls-1" x="94.36" y="12.02" width="2.18" height="10.23"/><path class="cls-1" d="M102.77,20.82l1.2-1.71a4.46,4.46,0,0,0,3.25,1.4c1.21,0,1.78-.54,1.78-1.14,0-1.78-5.89-.53-5.89-4.38,0-1.71,1.47-3.12,3.88-3.12a5.7,5.7,0,0,1,4,1.43l-1.21,1.62a4.45,4.45,0,0,0-3-1.12c-.92,0-1.44.4-1.44,1,0,1.61,5.87.52,5.87,4.34,0,1.87-1.35,3.28-4.09,3.28a5.93,5.93,0,0,1-4.36-1.62"/><path class="cls-1" d="M27,18v3.09l-.91.52-.93.54-.84.49v-.93l.9-.52.94-.54,0,0V18.49Zm.06-.11-.93.54v2.16l-.94.54-.93.54v1.08l.93-.54.94-.54.93-.54V17.91Z"/><path class="cls-1" d="M27,13.71V16.8l-.81.46V15.11l-.1.05-.93.54-.84.49v-.94l.9-.52.94-.54ZM27,13.6l-.93.54-.94.54-.93.54V16.3l.93-.54.94-.54v2.15l.93-.53V13.6Z"/><path class="cls-1" d="M24.22,12.06l.9.52.94.54.83.48-.83.48-.94.54-.9.52-.81-.46.84-.49.93-.53.1-.06-.1-.06L24.25,13l-.84-.49Zm0-.08-.94.54.94.54.93.54-.93.54-.94.54.94.54.93-.54.94-.54L27,13.6l-.93-.54-.94-.54Z"/><path class="cls-1" d="M26.09,17.45l.8.47-.8.46-.81-.46Zm0-.07-.94.54.94.53.93-.53Z"/><path class="cls-1" d="M25.22,18l.8.47v2l-.8-.46V18Zm-.07-.11v2.16l.94.54V18.45Z"/><path class="cls-1" d="M26,15.33v1.93l-.8-.46v-1Zm.07-.11-.94.54v1.08l.94.54V15.22Z"/><path class="cls-1" d="M25.15,20.15l.81.46-.84.48-.9.53-.81-.47.84-.48Zm0-.08-.93.54-.94.54.94.54.93-.54.94-.54Z"/><path class="cls-1" d="M24.22,18.53l.87.5V20l-.84-.48L23.41,19Zm0-.08-.94.54.94.54.93.54V19Z"/><path class="cls-1" d="M23.35,12.63l.84.49.84.48-.81.47-.87-.51Zm-.06-.11V13.6l.93.54.93-.54-.93-.54Z"/><path class="cls-1" d="M23.35,19.1l.84.49.84.48-.81.47L23.35,20ZM23.29,19v1.08l.93.54.93-.54-.93-.54Z"/><path class="cls-1" d="M23.35,21.26l.8.47v.93l-.8-.47Zm-.06-.11v1.08l.93.54V21.69Z"/><path class="cls-1" d="M23.35,14.79l.8.46v.94l-.8-.47Zm-.06-.11v1.08l.93.54V15.22Z"/><path class="cls-1" d="M21.35,21.26v2.16l.1-.06.93-.54.84-.48v.93l-.9.52-.94.54-.83.49V21.73Zm.07-.11-.94.54v3.24l.94-.54.93-.54.93-.54V22.23l-.93.54-.93.54V21.15Z"/><path class="cls-1" d="M23.22,18V19l-.81.46v-.93Zm.07-.11-.94.54v1.08l.94-.54Z"/><path class="cls-1" d="M23.22,15.87v.93l-.87.5-.81-.46.84-.49Zm.07-.11-.94.54-.93.54.93.54.94-.54Z"/><path class="cls-1" d="M23.22,11.55v.93l-.81.47V12Zm.07-.11-.94.54v1.08l.94-.54Z"/><path class="cls-1" d="M20.48,9.9l.9.52.94.54.84.48-.81.47-.9-.52-.94-.54,0,0,0,0-.93.54-.91.52-.8-.47.84-.48.93-.54Zm0-.08-.93.54-.94.54-.93.54.93.54.94-.54.93-.54.94.54.93.54.93-.54-.93-.54-.93-.54Z"/><path class="cls-1" d="M22.35,15.29l.81.47-.84.48-.84.49v-.94Zm0-.07-.93.54v1.08l.93-.54.93-.54Z"/><path class="cls-1" d="M21.42,16.91l.9.52.84.48-.81.47-.9-.52-.84-.48Zm0-.07-.94.54.94.53.93.54.93-.54-.93-.53Z"/><path class="cls-1" d="M22.35,21.76l.81.47-.84.48-.84.49v-.93Zm0-.07-.93.54v1.08l.93-.54.93-.54Z"/><path class="cls-1" d="M20.55,17.49l.83.48.91.52v.93l-.84-.48-.9-.52Zm-.07-.11v1.07l.94.54.93.54V18.45l-.93-.53Z"/><path class="cls-1" d="M20.55,11l.83.49.91.52V13l-.84-.48-.9-.52Zm-.07-.11V12l.94.54.93.54V12l-.93-.54Z"/><path class="cls-1" d="M20.55,18.56l.8.47v1l-.8.47V18.56Zm-.07-.11v2.16l.94-.54V19Z"/><path class="cls-1" d="M21.35,14.79v2l-.8.46v-2Zm.07-.11-.94.54v2.16l.94-.54V14.68Z"/><path class="cls-1" d="M20.55,12.09l.8.47v1l-.8.47V12.09ZM20.48,12v2.16l.94-.54V12.52Z"/><path class="cls-1" d="M20.48,14.21l.81.47-.81.46-.8-.46Zm0-.07-.93.54.93.54.94-.54Z"/><path class="cls-1" d="M20.48,20.68l.81.47-.81.47-.8-.47Zm0-.07-.93.54.93.54.94-.54Z"/><path class="cls-1" d="M19.61,21.26l.81.47v3.09l-.84-.49-.93-.54-.91-.52v-.93l.84.48.94.54.09.06V21.26Zm-.06-.11v2.16l-.94-.54-.93-.54v1.08l.93.54.94.54.93.54V21.69Z"/><path class="cls-1" d="M20.42,18.56V20.5L19.61,20V19Zm.06-.11-.93.54v1.08l.93.54V18.45Z"/><path class="cls-1" d="M20.42,17.49v.93l-.9.52-.84.48v-.93l.9-.52Zm.06-.11-.93.54-.94.53v1.08l.94-.54.93-.54Z"/><path class="cls-1" d="M19.61,14.79l.81.46v2l-.81-.46v-2Zm-.06-.11v2.16l.93.54V15.22Z"/><path class="cls-1" d="M20.42,12.09V14l-.81-.47v-1Zm.06-.11-.93.54V13.6l.93.54V12Z"/><path class="cls-1" d="M20.42,11V12l-.9.52-.84.48V12l.9-.52Zm.06-.11-.93.54-.94.54v1.08l.94-.54.93-.54Z"/><path class="cls-1" d="M19.55,16.91l.81.47-.84.48-.91.52-.8-.47.84-.48Zm0-.07-.94.54-.93.53.93.54.94-.54.93-.53Z"/><path class="cls-1" d="M18.61,21.76l.87.51v.93l-.83-.49-.84-.48Zm0-.07-.93.54.93.54.94.54V22.23Z"/><path class="cls-1" d="M18.61,15.29l.87.5v.94l-.83-.49-.84-.48Zm0-.07-.93.54.93.54.94.54V15.76Z"/><path class="cls-1" d="M17.74,15.87l.84.48.84.49-.81.46-.87-.5Zm-.06-.11v1.08l.93.54.94-.54-.94-.54Z"/><path class="cls-1" d="M17.74,18l.81.47v.93L17.74,19Zm-.06-.11V19l.93.54V18.45Z"/><path class="cls-1" d="M17.74,11.55l.81.47V13l-.81-.47Zm-.06-.11v1.08l.93.54V12Z"/><path class="cls-1" d="M17.62,21.26v.93l-.81.47v-.93Zm.06-.11-.93.54v1.08l.93-.54Z"/><path class="cls-1" d="M17.62,19.1V20l-.87.51-.81-.47.84-.48Zm.06-.11-.93.54-.94.54.94.54.93-.54Z"/><path class="cls-1" d="M17.62,14.79v.93l-.81.47v-.94Zm.06-.11-.93.54V16.3l.93-.54Z"/><path class="cls-1" d="M17.62,12.63v.93l-.87.51-.81-.47.84-.48Zm.06-.11-.93.54-.94.54.94.54.93-.54Z"/><path class="cls-1" d="M16.75,12.06l.8.46-.84.49-.93.53-.1.06.1.06.93.53.84.49-.8.46-.91-.52-.93-.54-.84-.48.84-.48.93-.54Zm0-.08-.94.54-.93.54-.94.54.94.54.93.54.94.54.93-.54-.93-.54-.94-.54.94-.54.93-.54Z"/><path class="cls-1" d="M16.75,18.53l.8.46-.84.49-.83.48V19Zm0-.08-.94.54v1.08l.94-.54.93-.54Z"/><path class="cls-1" d="M15.81,20.15l.9.52.84.48-.8.47-.91-.53L15,20.61Zm0-.08-.93.54.93.54.94.54.93-.54-.93-.54Z"/><path class="cls-1" d="M14,18l.8.47v2.16l0,0,.93.54.9.52v.93l-.84-.49-.93-.54-.9-.52V18Zm-.07-.11v3.24l.94.54.93.54.94.54V21.69l-.94-.54-.93-.54V18.45Z"/><path class="cls-1" d="M14,13.71l.84.48.93.54.9.52v.94l-.84-.49-.93-.54-.1-.05v2.15L14,16.8V13.71Zm-.07-.11v3.24l.94.53V15.22l.93.54.94.54V15.22l-.94-.54-.93-.54Z"/><path class="cls-1" d="M15.75,18v2l-.81.46v-2Zm.06-.11-.93.54v2.16l.93-.54V17.91Z"/><path class="cls-1" d="M14.94,15.33l.81.46v1l-.81.46V15.33Zm-.06-.11v2.16l.93-.54V15.76Z"/><path class="cls-1" d="M14.88,17.45l.8.47-.8.46-.81-.46Zm0-.07-.94.54.94.53.93-.53Z"/><polygon class="cls-1" points="20.48 10.83 18.61 11.91 17.71 11.39 17.65 11.5 18.61 12.05 20.48 10.97 22.35 12.05 23.32 11.5 23.25 11.39 22.35 11.91 20.48 10.83"/><rect class="cls-1" x="20.42" y="11.98" width="0.12" height="2.16"/><path class="cls-1" d="M20.48,9.75l-2.86,1.66v1.15l1,.57,1.87-1.08,1.87,1.08,1-.57V11.41ZM18.61,13l-.87-.5v-1L20.48,9.9l2.74,1.58v1l-.87.5-1.81-1v-1h-.12v1Z"/><polygon class="cls-1" points="21.48 12.52 21.36 12.52 21.36 13.56 20.48 14.07 19.61 13.56 19.61 12.52 19.49 12.52 19.49 13.64 20.48 14.21 21.48 13.64 21.48 12.52"/><rect class="cls-1" x="18.55" y="11.98" width="0.12" height="1.08"/><rect class="cls-1" x="22.29" y="11.98" width="0.12" height="1.08"/><rect class="cls-1" x="14.66" y="19.74" width="3.24" height="0.12" transform="translate(-7.72 10.8) rotate(-30.02)"/><polygon class="cls-1" points="13.97 17.86 13.91 17.97 14.82 18.49 14.82 20.65 16.75 21.76 17.71 21.2 17.65 21.1 16.75 21.62 14.94 20.57 14.94 18.42 13.97 17.86"/><path class="cls-1" d="M14.88,17.3l-1,.58v3.31l2.87,1.65,1-.58V21.11L15.87,20V17.88Zm1.87,5.4L14,21.11V18l.87-.5.87.5v2.16l1.87,1.08v1Z"/><polygon class="cls-1" points="16.75 18.38 15.78 18.94 15.84 19.05 16.75 18.52 17.62 19.03 17.62 20.04 16.71 20.56 16.78 20.66 17.74 20.11 17.74 18.96 16.75 18.38"/><rect class="cls-1" x="14.8" y="18.12" width="1.08" height="0.12" transform="translate(-7.04 10.12) rotate(-30.03)"/><polygon class="cls-1" points="26.99 17.86 26.03 18.42 26.03 20.57 24.16 21.65 24.16 22.77 24.28 22.77 24.28 21.73 26.15 20.65 26.15 18.49 27.05 17.97 26.99 17.86"/><path class="cls-1" d="M26.09,17.3l-1,.58V20l-1.87,1.07v1.15l1,.58,2.86-1.66v-3.3Zm-1.87,5.4-.87-.51v-1l1.86-1.07V18l.88-.5L27,18v3.16Z"/><polygon class="cls-1" points="23.32 18.94 23.25 19.05 26.06 20.66 26.12 20.56 23.32 18.94"/><polygon class="cls-1" points="24.22 18.38 23.22 18.96 23.22 20.11 24.19 20.66 24.25 20.56 23.35 20.04 23.35 19.03 24.22 18.52 25.12 19.05 25.18 18.94 24.22 18.38"/><polygon class="cls-1" points="23.31 21.1 23.25 21.2 24.19 21.74 24.25 21.64 23.31 21.1"/><polygon class="cls-1" points="25.18 17.86 25.12 17.97 26.06 18.51 26.12 18.4 25.18 17.86"/><polygon class="cls-1" points="23.25 22.18 21.39 23.25 21.45 23.36 23.32 22.28 23.25 22.18"/><polygon class="cls-1" points="22.35 21.62 21.39 22.18 21.45 22.28 22.35 21.76 23.22 22.26 23.22 23.27 20.48 24.85 17.74 23.27 17.74 22.26 18.61 21.76 19.52 22.28 19.58 22.18 18.61 21.62 17.62 22.19 17.62 23.34 20.48 25 23.35 23.34 23.35 22.19 22.35 21.62"/><polygon class="cls-1" points="21.39 21.1 20.42 21.65 20.42 24.93 20.55 24.93 20.55 21.73 21.45 21.2 21.39 21.1"/><polygon class="cls-1" points="20.48 20.54 19.49 21.11 19.49 23.31 19.61 23.31 19.61 21.19 20.48 20.68 21.36 21.19 21.36 23.31 21.48 23.31 21.48 21.11 20.48 20.54"/><polygon class="cls-1" points="19.58 21.1 19.52 21.2 20.45 21.74 20.51 21.64 19.58 21.1"/><polygon class="cls-1" points="17.71 22.18 17.65 22.28 19.52 23.36 19.58 23.25 17.71 22.18"/><polygon class="cls-1" points="26.99 13.55 24.22 15.15 23.32 14.63 23.25 14.73 24.22 15.29 27.05 13.65 26.99 13.55"/><rect class="cls-1" x="24.16" y="15.22" width="0.12" height="1.08"/><polygon class="cls-1" points="23.32 12.47 23.25 12.57 25.12 13.65 25.18 13.55 23.32 12.47"/><rect class="cls-1" x="26.03" y="15.22" width="0.12" height="2.16"/><polygon class="cls-1" points="24.22 11.91 23.22 12.49 23.22 13.64 24.19 14.19 24.25 14.09 23.35 13.56 23.35 12.56 24.22 12.05 26.96 13.64 26.96 16.8 26.09 17.3 25.21 16.8 25.21 15.76 25.09 15.76 25.09 16.87 26.09 17.45 27.08 16.87 27.08 13.56 24.22 11.91"/><polygon class="cls-1" points="25.12 13.55 23.22 14.64 23.22 15.79 24.22 16.37 26.12 15.27 26.06 15.16 24.22 16.23 23.35 15.72 23.35 14.71 25.18 13.65 25.12 13.55"/><polygon class="cls-1" points="17.65 12.47 15.78 13.55 15.84 13.65 17.71 12.57 17.65 12.47"/><polygon class="cls-1" points="13.97 13.55 13.91 13.65 16.68 15.25 16.68 16.3 16.81 16.3 16.81 15.18 13.97 13.55"/><polygon class="cls-1" points="15.84 13.55 15.78 13.65 17.62 14.71 17.62 15.72 16.75 16.23 14.91 15.16 14.85 15.27 16.75 16.37 17.74 15.79 17.74 14.64 15.84 13.55"/><rect class="cls-1" x="14.82" y="15.22" width="0.12" height="2.16"/><polygon class="cls-1" points="16.75 11.91 13.88 13.56 13.88 16.87 14.88 17.45 15.87 16.87 15.87 15.76 15.75 15.76 15.75 16.8 14.88 17.3 14.01 16.8 14.01 13.64 16.75 12.05 17.62 12.56 17.62 13.56 16.71 14.09 16.78 14.19 17.74 13.64 17.74 12.49 16.75 11.91"/><polygon class="cls-1" points="17.65 14.63 16.71 15.16 16.78 15.27 17.71 14.73 17.65 14.63"/><path class="cls-1" d="M20.48,14.07l-1,.57v2.23l.93.54v1.08l1.93,1.11,1-.57V17.88l-1.81-1,1.78-1-.07-.11-1.77,1V14.64Zm0,3.23-.87-.5V14.71l.87-.5.88.5V16.8Zm1.87,1.08-1.74-1,.81-.47,1.74,1Zm0,1.08-1.81-1v-.94l1.81,1,.87-.5V19Z"/><polygon class="cls-1" points="21.48 18.99 21.36 18.99 21.36 20.04 20.48 20.54 19.61 20.04 19.61 18.99 19.49 18.99 19.49 20.11 20.48 20.68 21.48 20.11 21.48 18.99"/><polygon class="cls-1" points="18.61 15.15 17.62 15.72 17.62 16.87 18.58 17.43 18.64 17.32 17.74 16.8 17.74 15.79 18.61 15.29 19.52 15.81 19.58 15.7 18.61 15.15"/><polygon class="cls-1" points="19.58 14.63 19.52 14.73 20.42 15.25 20.42 17.34 18.55 18.42 18.55 19.53 18.68 19.53 18.68 18.49 20.54 17.41 20.54 15.18 19.58 14.63"/><polygon class="cls-1" points="17.71 15.7 17.65 15.81 19.52 16.89 19.58 16.78 17.71 15.7"/><polygon class="cls-1" points="17.71 17.86 17.65 17.97 18.58 18.51 18.64 18.4 17.71 17.86"/><polygon class="cls-1" points="22.35 15.15 21.39 15.7 21.45 15.81 22.35 15.29 23.22 15.79 23.22 16.8 22.32 17.32 22.38 17.43 23.35 16.87 23.35 15.72 22.35 15.15"/><polygon class="cls-1" points="19.52 16.78 17.62 17.88 17.62 19.03 18.61 19.6 20.51 18.51 20.45 18.4 18.61 19.46 17.74 18.96 17.74 17.95 19.58 16.89 19.52 16.78"/><rect class="cls-1" x="20.42" y="18.45" width="0.12" height="2.16"/><rect class="cls-1" x="22.29" y="18.45" width="0.12" height="1.08"/><rect class="cls-1" x="20.41" y="14.89" width="1.08" height="0.12" transform="translate(-4.67 12.5) rotate(-30.06)"/><rect class="cls-1" x="16.68" y="21.69" width="0.12" height="1.08"/></g></g></svg>